<svg id="Layer_1" data-name="Layer 1" xmlns="http://www.w3.org/2000/svg" viewBox="0 0 311.81 311.81"><defs><style>.cls-1{fill:#27479d;}.cls-2{fill:#f16055;}.cls-3{fill:#c59c6d;}</style></defs><title>Central Vallery Church - logo</title><polygon class="cls-1" points="76.07 192.05 158.37 192.05 76.07 27.47 76.07 192.05"/><polygon class="cls-1" points="158.37 192.05 240.66 192.05 240.66 27.47 158.37 192.05"/><path class="cls-2" d="M195.17,118.45l45.49-91H76.07l45.49,91a82.26,82.26,0,0,1,73.6,0Z"/><path class="cls-3" d="M195.17,118.45a82.26,82.26,0,0,0-73.6,0l36.8,73.6Z"/><path class="cls-3" d="M91.91,243.3c.23,0,.35.15.26.32l-7.95,20.51a.3.3,0,0,1-.5,0l-7.89-20.51c-.09-.18,0-.32.23-.32h3.56a.28.28,0,0,1,.26.15L84,254.87l4.09-11.42a.27.27,0,0,1,.26-.15Z"/><path class="cls-3" d="M104.92,263.71c-.23,0-.35-.15-.26-.32l7.95-20.51a.3.3,0,0,1,.5,0L121,263.39c.09.18,0,.32-.23.32h-3.56a.28.28,0,0,1-.26-.15l-4.09-11.42-4.09,11.42a.27.27,0,0,1-.26.15Z"/><path class="cls-3" d="M148.51,260a.27.27,0,0,1,.29.23v3.3a.27.27,0,0,1-.29.23H137.87a.27.27,0,0,1-.29-.23v-20a.27.27,0,0,1,.29-.23h3.3a.27.27,0,0,1,.29.23V260Z"/><path class="cls-3" d="M175.76,260a.27.27,0,0,1,.29.23v3.3a.27.27,0,0,1-.29.23H165.12a.27.27,0,0,1-.29-.23v-20a.27.27,0,0,1,.29-.23h3.3a.27.27,0,0,1,.29.23V260Z"/><path class="cls-3" d="M196.49,247v4.73h8a.24.24,0,0,1,.26.23v3.19a.24.24,0,0,1-.26.23h-8v4.67h9.64a.27.27,0,0,1,.29.23v3.21a.27.27,0,0,1-.29.23H192.89a.26.26,0,0,1-.26-.23v-20a.26.26,0,0,1,.26-.23h13.23a.27.27,0,0,1,.29.23v3.24a.27.27,0,0,1-.29.23Z"/><path class="cls-3" d="M240.15,243.3c.26,0,.38.21.23.38L233,254.2v9.32a.27.27,0,0,1-.29.23h-3.3a.27.27,0,0,1-.29-.23V254.2c-2.42-3.45-4.94-7.07-7.39-10.52-.15-.17,0-.38.23-.38H226s.18,0,.2.09l4.85,6.92,4.82-6.92c0-.06.17-.09.2-.09Z"/><path class="cls-3" d="M86.82,281.53a.17.17,0,0,1,.2,0l1.15,1.17a.11.11,0,0,1,0,.18,5.06,5.06,0,0,1-3.59,1.47,5.26,5.26,0,1,1,3.59-9,.11.11,0,0,1,0,.18L87,276.64a.17.17,0,0,1-.2,0,3.21,3.21,0,0,0-2.23-.93,3.14,3.14,0,0,0-3.14,3.43,3.1,3.1,0,0,0,3.14,3.33A3.15,3.15,0,0,0,86.82,281.53Z"/><path class="cls-3" d="M116.54,274a.13.13,0,0,1,.13.12v10a.13.13,0,0,1-.13.12h-1.66a.13.13,0,0,1-.15-.12v-4.15h-3.82v4.15a.13.13,0,0,1-.15.12h-1.65a.13.13,0,0,1-.15-.12v-10a.13.13,0,0,1,.15-.12h1.65a.13.13,0,0,1,.15.12v4h3.82v-4a.13.13,0,0,1,.15-.12Z"/><path class="cls-3" d="M139.34,280.91v-6.73a.13.13,0,0,1,.15-.12h1.65a.13.13,0,0,1,.15.12v6.71a1.79,1.79,0,0,0,1.91,1.56c1,0,1.91-.51,1.91-1.55v-6.73a.13.13,0,0,1,.15-.12h1.66a.13.13,0,0,1,.13.12v6.73c0,2.17-1.66,3.43-3.85,3.43S139.34,283,139.34,280.91Z"/><path class="cls-3" d="M170,280.07h-1.09v4a.13.13,0,0,1-.15.12h-1.66a.13.13,0,0,1-.13-.12v-10a.13.13,0,0,1,.13-.12h3.3c.58,0,3.46,0,3.46,3a2.7,2.7,0,0,1-1.88,2.74c.64,1.44,1.33,2.85,2,4.28,0,.09,0,.16-.12.16H172a.2.2,0,0,1-.13-.07Zm-1.09-1.87h1.49c.42,0,1.52-.06,1.52-1.18s-1.21-1.18-1.52-1.18h-1.49Z"/><path class="cls-3" d="M202.5,281.53a.17.17,0,0,1,.2,0l1.15,1.17a.11.11,0,0,1,0,.18,5.06,5.06,0,0,1-3.59,1.47,5.26,5.26,0,1,1,3.59-9,.11.11,0,0,1,0,.18l-1.15,1.15a.17.17,0,0,1-.2,0,3.21,3.21,0,0,0-2.23-.93,3.14,3.14,0,0,0-3.14,3.43,3.1,3.1,0,0,0,3.14,3.33A3.15,3.15,0,0,0,202.5,281.53Z"/><path class="cls-3" d="M234.77,274a.13.13,0,0,1,.13.12v10a.13.13,0,0,1-.13.12h-1.66a.13.13,0,0,1-.15-.12v-4.15h-3.82v4.15a.13.13,0,0,1-.15.12h-1.65a.13.13,0,0,1-.15-.12v-10a.13.13,0,0,1,.15-.12H229a.13.13,0,0,1,.15.12v4H233v-4a.13.13,0,0,1,.15-.12Z"/><path class="cls-3" d="M74.67,228.2a.36.36,0,0,1,.41,0l2.31,2.34a.22.22,0,0,1,0,.35,10.13,10.13,0,0,1-7.19,2.95A10,10,0,0,1,60,223.41c0-6.11,4.24-10.61,10.22-10.61a10,10,0,0,1,7.19,3,.22.22,0,0,1,0,.35l-2.31,2.31a.35.35,0,0,1-.41,0,6.42,6.42,0,0,0-4.47-1.87c-3.92,0-6.28,3-6.28,6.87,0,4.12,2.81,6.66,6.28,6.66A6.29,6.29,0,0,0,74.67,228.2Z"/><path class="cls-3" d="M97,216.81v4.73h8a.24.24,0,0,1,.26.23V225a.24.24,0,0,1-.26.23H97v4.67h9.64a.27.27,0,0,1,.29.23v3.21a.27.27,0,0,1-.29.23H93.45a.26.26,0,0,1-.26-.23v-20a.26.26,0,0,1,.26-.23h13.23a.27.27,0,0,1,.29.23v3.24a.27.27,0,0,1-.29.23Z"/><path class="cls-3" d="M139.72,233.31a.27.27,0,0,1-.29.23H136.1c-.06,0-.2,0-.23-.09l-9.35-13.61v13.47a.26.26,0,0,1-.26.23h-3.33a.24.24,0,0,1-.26-.23v-20a.24.24,0,0,1,.26-.23h3.36c.06,0,.18,0,.2.09l9.38,13.73V213.3a.27.27,0,0,1,.29-.23h3.27a.27.27,0,0,1,.29.23Z"/><path class="cls-3" d="M167,216.54c0,.12-.12.21-.29.21h-3.89v16.56a.24.24,0,0,1-.26.23h-3.3a.24.24,0,0,1-.26-.23V216.75h-3.89c-.18,0-.29-.09-.29-.21v-3a.27.27,0,0,1,.29-.23h11.6a.27.27,0,0,1,.29.23Z"/><path class="cls-3" d="M188,225.28h-2.19v8a.27.27,0,0,1-.29.23h-3.33a.26.26,0,0,1-.26-.23v-20a.26.26,0,0,1,.26-.23h6.6c1.17,0,6.92.06,6.92,6.08a5.4,5.4,0,0,1-3.77,5.49c1.29,2.89,2.66,5.7,3.95,8.56.09.18,0,.32-.23.32H192a.4.4,0,0,1-.26-.15Zm-2.19-3.74h3c.85,0,3-.12,3-2.37s-2.43-2.37-3-2.37h-3Z"/><path class="cls-3" d="M221.22,231.24h-6.63l-.79,2.16a.27.27,0,0,1-.26.15h-3.59c-.23,0-.35-.15-.26-.32l8-20.57a.3.3,0,0,1,.53,0l8,20.57c.09.18,0,.32-.23.32H222.3a.26.26,0,0,1-.23-.15Zm-5.38-3.45H220l-2-6.14Z"/><path class="cls-3" d="M251.55,229.78a.27.27,0,0,1,.29.23v3.3a.27.27,0,0,1-.29.23H240.91a.27.27,0,0,1-.29-.23v-20a.27.27,0,0,1,.29-.23h3.3a.27.27,0,0,1,.29.23v16.45Z"/></svg>